<?xml version="1.0" standalone="no"?>
<!DOCTYPE svg PUBLIC "-//W3C//DTD SVG 20010904//EN"
 "http://www.w3.org/TR/2001/REC-SVG-20010904/DTD/svg10.dtd">
<svg version="1.0" xmlns="http://www.w3.org/2000/svg"
 width="995.000000pt" height="1280.000000pt" viewBox="0 0 995.000000 1280.000000"
 preserveAspectRatio="xMidYMid meet">

<g transform="translate(0.000000,1280.000000) scale(0.100000,-0.100000)"
fill="#000000" stroke="none">
<path d="M4825 8564 c-357 -51 -603 -171 -840 -409 -208 -207 -328 -437 -392
-750 -15 -71 -17 -226 -20 -1402 l-4 -1323 -89 0 -90 0 0 -40 0 -40 1590 0
1590 0 0 40 0 40 -138 0 -137 0 -550 550 c-302 302 -547 551 -545 553 3 2 32
9 65 16 480 103 880 458 1037 921 70 208 92 479 54 690 -36 204 -137 437 -261
601 -73 98 -212 235 -305 301 -143 101 -336 187 -520 229 -83 20 -368 34 -445
23z m464 -139 c434 -113 760 -413 909 -837 50 -141 66 -243 66 -418 0 -175
-17 -279 -65 -418 -137 -388 -436 -683 -824 -811 -166 -55 -229 -61 -651 -61
l-384 0 0 55 0 55 374 0 c410 0 477 6 638 60 395 132 694 469 781 879 24 113
28 348 8 451 -45 229 -151 436 -310 603 -226 238 -523 367 -846 367 -565 0
-1026 -364 -1163 -917 l-26 -108 -3 -1322 -4 -1323 -55 0 -55 0 4 1333 c3
1472 -1 1362 67 1569 144 431 522 768 955 852 44 8 89 17 100 20 11 3 101 3
200 2 157 -3 193 -7 284 -31z m-202 -186 c812 -90 1232 -1003 773 -1680 -171
-251 -462 -424 -773 -458 -53 -6 -243 -11 -422 -11 l-325 0 0 55 0 55 198 1
c108 0 292 4 407 9 235 9 297 22 443 90 113 53 193 112 288 213 359 381 349
970 -22 1340 -123 123 -275 208 -453 254 -87 22 -110 24 -251 20 -175 -5 -271
-27 -403 -93 -218 -110 -402 -317 -478 -536 -60 -177 -59 -138 -59 -1539 l0
-1279 -55 0 -55 0 2 1328 3 1327 27 100 c31 112 96 254 158 345 168 248 468
428 765 459 116 12 126 12 232 0z m99 -239 c328 -84 584 -363 635 -692 7 -42
9 -122 6 -188 -4 -94 -11 -134 -37 -210 -95 -288 -312 -491 -605 -572 -74 -20
-108 -22 -462 -26 l-383 -4 0 55 0 55 373 4 c341 4 379 7 450 26 249 68 437
247 523 497 25 72 28 94 28 220 1 120 -2 151 -22 215 -62 198 -193 356 -374
450 -113 59 -210 82 -343 82 -214 0 -369 -65 -526 -222 -78 -78 -102 -110
-136 -180 -84 -171 -77 -43 -80 -1517 l-3 -1313 -55 0 -55 0 0 1290 c0 1134 2
1300 16 1368 98 481 577 782 1050 662z m-64 -209 c236 -61 415 -237 473 -466
19 -76 19 -234 0 -310 -43 -172 -177 -336 -335 -414 -134 -66 -175 -71 -572
-71 l-348 0 0 363 c0 404 4 436 67 566 52 108 169 224 283 280 145 71 290 88
432 52z m-142 -2566 l540 -540 -72 -3 -72 -3 -518 518 c-438 438 -518 522
-518 546 0 27 1 28 50 25 l51 -3 539 -540z m310 0 l545 -545 -75 0 -75 0 -545
545 -545 545 75 0 75 0 545 -545z m310 0 l545 -545 -75 0 -75 0 -545 545 -545
545 75 0 75 0 545 -545z m-815 -105 l440 -440 -443 0 -442 0 0 440 c0 242 1
440 3 440 1 0 200 -198 442 -440z"/>
<path d="M4205 4401 c0 -74 4 -121 10 -121 6 0 9 36 7 95 l-3 95 87 -93 c48
-50 91 -96 96 -101 4 -6 8 45 8 112 0 91 -3 122 -12 122 -10 0 -12 -24 -10
-92 l2 -93 -92 98 -93 99 0 -121z"/>
<path d="M5003 4505 c-85 -37 -83 -185 2 -221 45 -18 73 -18 115 4 30 14 36
23 41 60 4 34 2 42 -11 42 -12 0 -15 -8 -12 -39 4 -36 1 -41 -27 -55 -44 -23
-77 -20 -113 13 -29 26 -32 34 -32 86 0 52 3 60 32 86 44 39 84 38 124 -1 17
-17 28 -24 24 -15 -3 9 -6 20 -6 25 0 10 -56 30 -84 30 -12 -1 -35 -7 -53 -15z"/>
<path d="M5583 4505 c-60 -26 -82 -118 -43 -182 41 -67 159 -67 200 0 40 65
17 157 -45 183 -42 17 -71 17 -112 -1z m110 -16 c57 -44 57 -144 0 -189 -75
-59 -166 23 -143 127 17 73 89 105 143 62z"/>
<path d="M6560 4498 c-106 -71 -47 -239 79 -225 31 4 52 13 75 36 27 28 31 38
31 86 0 48 -4 58 -31 86 -44 43 -105 50 -154 17z m134 -17 c29 -29 33 -116 7
-158 -52 -82 -171 -32 -171 72 0 38 27 90 53 104 30 15 87 6 111 -18z"/>
<path d="M6895 4511 l-50 -6 0 -113 c0 -93 3 -112 15 -112 12 0 14 11 12 56
l-4 56 41 -4 c25 -2 41 1 41 7 0 6 -16 9 -40 7 l-40 -4 0 51 0 51 45 0 c25 0
45 5 45 10 0 6 -3 9 -7 8 -5 -1 -30 -4 -58 -7z"/>
<path d="M3015 4395 c0 -96 3 -115 15 -115 13 0 15 17 12 110 l-3 110 28 0
c36 0 53 -16 53 -50 0 -33 -17 -50 -49 -50 -21 0 -23 -2 -10 -12 8 -7 32 -34
53 -60 20 -27 44 -48 52 -48 10 0 -1 19 -30 53 -44 51 -44 53 -23 62 33 15 44
58 23 89 -14 22 -24 26 -69 26 l-52 0 0 -115z"/>
<path d="M3280 4419 c0 -87 1 -92 29 -120 49 -49 126 -33 148 31 17 48 17 180
1 180 -10 0 -12 -23 -10 -90 3 -84 2 -91 -22 -115 -30 -30 -65 -32 -97 -6 -22
18 -24 26 -24 115 0 70 -3 96 -12 96 -10 0 -13 -25 -13 -91z"/>
<path d="M3585 4395 c0 -96 3 -115 15 -115 12 0 14 11 12 55 l-4 55 72 0 72 0
-4 -55 c-2 -44 0 -55 12 -55 12 0 15 19 15 115 0 96 -3 115 -15 115 -12 0 -14
-11 -12 -55 l4 -55 -72 0 -72 0 4 55 c2 44 0 55 -12 55 -12 0 -15 -19 -15
-115z"/>
<path d="M3900 4414 c5 -91 7 -97 34 -121 24 -21 37 -24 69 -20 63 9 71 24 77
137 3 63 1 100 -5 100 -6 0 -9 -34 -7 -90 3 -84 2 -91 -22 -115 -30 -30 -65
-32 -97 -6 -22 18 -24 26 -24 115 0 79 -3 96 -15 96 -13 0 -14 -15 -10 -96z"/>
<path d="M4528 4416 c3 -76 7 -98 23 -115 34 -37 89 -40 134 -7 17 12 21 29
25 115 3 64 1 101 -5 101 -6 0 -10 -39 -10 -96 0 -89 -2 -97 -24 -115 -32 -26
-67 -24 -96 6 -23 22 -25 32 -25 115 0 65 -3 90 -12 90 -10 0 -12 -24 -10 -94z"/>
<path d="M5268 4395 c2 -80 7 -115 15 -115 9 0 11 30 9 110 l-4 110 36 0 c29
0 39 -5 48 -25 16 -36 -3 -75 -37 -75 l-26 0 37 -47 c46 -59 63 -73 83 -72 10
0 11 2 4 5 -22 9 -84 104 -68 104 31 0 48 83 23 108 -7 7 -37 12 -67 12 l-56
0 3 -115z"/>
<path d="M5858 4416 c3 -76 7 -98 23 -115 34 -37 89 -40 134 -7 17 12 21 29
25 115 3 64 1 101 -5 101 -6 0 -10 -39 -10 -96 0 -89 -2 -97 -24 -115 -32 -26
-67 -24 -96 6 -23 22 -25 32 -25 115 0 65 -3 90 -12 90 -10 0 -12 -24 -10 -94z"/>
<path d="M6165 4395 c0 -96 3 -115 15 -115 13 0 15 17 12 110 l-3 110 36 0
c29 0 37 -5 45 -25 13 -33 -2 -70 -32 -79 -15 -5 -19 -9 -9 -13 21 -8 66 31
69 61 5 44 -22 66 -82 66 l-51 0 0 -115z"/>
<path d="M3878 4045 c-70 -39 -78 -166 -14 -209 12 -7 35 -16 53 -20 59 -13
132 36 120 82 -4 13 -5 12 -6 -4 -3 -58 -104 -91 -150 -50 -50 46 -47 144 6
186 42 33 109 21 132 -24 10 -20 11 -20 5 4 -3 14 -10 29 -15 34 -15 17 -103
17 -131 1z"/>
<path d="M4178 4044 c-53 -28 -74 -113 -43 -173 40 -78 177 -75 213 5 16 35
15 89 -3 124 -28 55 -109 76 -167 44z m115 -15 c52 -40 55 -141 6 -185 -27
-25 -91 -25 -118 0 -12 11 -25 35 -31 55 -28 104 68 190 143 130z"/>
<path d="M4803 4048 c16 -12 18 -27 15 -121 -2 -90 -1 -107 12 -107 13 0 15
18 12 111 l-3 110 38 -3 c36 -3 38 -5 41 -40 2 -29 -2 -40 -17 -50 -26 -16
-28 -30 -3 -21 32 11 52 36 52 63 0 42 -32 63 -103 68 -54 4 -60 2 -44 -10z"/>
<path d="M5101 3997 c-13 -34 -36 -88 -51 -119 -25 -54 -26 -58 -8 -58 11 0
17 3 14 8 -2 4 2 22 10 40 13 32 16 33 61 30 46 -3 48 -4 57 -40 8 -32 14 -38
35 -38 15 0 21 3 14 8 -6 4 -30 54 -54 112 -23 58 -45 108 -48 112 -4 4 -17
-21 -30 -55z m58 -74 c1 -8 -13 -13 -38 -13 l-39 0 21 55 22 54 17 -42 c9 -23
17 -48 17 -54z"/>
<path d="M5498 4053 c8 -3 12 -32 12 -94 l0 -90 -89 93 -89 93 -4 -118 c-2
-73 1 -117 7 -117 6 0 9 37 7 97 l-3 98 95 -100 95 -100 1 112 c0 96 3 113 18
122 13 8 9 10 -23 10 -22 0 -34 -3 -27 -6z"/>
<path d="M5644 4047 c15 -11 17 -27 14 -120 -2 -90 -1 -107 12 -107 13 0 14
17 12 106 -2 71 1 110 9 120 10 12 5 14 -27 14 -33 0 -36 -2 -20 -13z"/>
<path d="M5799 4046 c8 -10 11 -49 9 -120 l-3 -106 61 0 c47 0 63 4 68 16 9
24 7 27 -10 10 -9 -9 -32 -16 -55 -16 l-39 0 0 51 0 51 40 -4 c24 -2 40 1 40
7 0 6 -16 9 -40 7 l-40 -4 0 51 0 51 45 0 c25 0 45 5 45 10 0 6 -29 10 -66 10
-57 0 -65 -2 -55 -14z"/>
<path d="M6048 4048 c-37 -30 -32 -55 23 -113 42 -44 50 -59 45 -79 -12 -47
-80 -42 -89 6 -4 20 -4 19 -6 -5 -1 -21 5 -30 25 -37 50 -19 94 8 94 59 0 11
-22 42 -50 69 -54 54 -57 59 -37 87 17 22 63 14 70 -13 3 -10 5 -6 6 11 1 24
-2 27 -32 27 -18 0 -40 -6 -49 -12z"/>
<path d="M4478 4045 c-3 -6 -9 -48 -13 -95 -4 -47 -11 -95 -16 -107 -6 -17 -5
-23 5 -23 11 0 16 23 22 92 l7 92 44 -95 44 -94 41 90 c22 50 41 92 43 93 2 2
7 -37 10 -87 7 -79 10 -91 26 -91 15 0 17 4 10 23 -5 12 -12 58 -16 103 -4 44
-10 86 -14 92 -4 7 -25 -28 -51 -85 l-44 -97 -46 99 c-25 55 -49 95 -52 90z"/>
</g>
</svg>
